<svg xmlns="http://www.w3.org/2000/svg" width="1005" height="600"><rect width="1005" height="600" x="0" y="0" fill="#ffffff" id="background"/><g id="viz"><g transform="translate(0,0)"><g id="pie" transform="translate(67.08333333333333,69)"><path fill="#9e0142" stroke="#ffffff" d="M5.980374442977311e-16,-9.76669264499949A9.76669264499949,9.76669264499949,0,0,1,6.130478963006332,-7.602993680519794L0,0Z"/><path fill="#417505" stroke="#ffffff" d="M6.130478963006332,-7.602993680519794A9.76669264499949,9.76669264499949,0,0,1,6.272679162983383,7.4861058862509555L0,0Z"/><path fill="#5e4fa2" stroke="#ffffff" d="M6.272679162983383,7.4861058862509555A9.76669264499949,9.76669264499949,0,1,1,-1.794112332893193e-15,-9.76669264499949L0,0Z"/></g><text y="55.23330735500051" x="67.08333333333333" style="font-family: Arial, sans-serif; font-size: 12px; fill: black; font-weight: bold; dominant-baseline: auto; text-anchor: middle;">Argentina</text></g><g transform="translate(134.16666666666666,0)"><g id="pie" transform="translate(67.08333333333333,69)"><path fill="#9e0142" stroke="#ffffff" d="M6.960872792763853e-16,-11.367967968577199A11.367967968577199,11.367967968577199,0,0,1,2.546999392216643,-11.078966099354455L0,0Z"/><path fill="#417505" stroke="#ffffff" d="M2.546999392216643,-11.078966099354455A11.367967968577199,11.367967968577199,0,0,1,11.033352757858113,2.737850005983161L0,0Z"/><path fill="#5e4fa2" stroke="#ffffff" d="M11.033352757858113,2.737850005983161A11.367967968577199,11.367967968577199,0,1,1,-2.0882618378291556e-15,-11.367967968577199L0,0Z"/></g><text y="53.6320320314228" x="67.08333333333333" style="font-family: Arial, sans-serif; font-size: 12px; fill: black; font-weight: bold; dominant-baseline: auto; text-anchor: middle;">Australia</text></g><g transform="translate(268.3333333333333,0)"><g id="pie" transform="translate(67.08333333333333,69)"><path fill="#9e0142" stroke="#ffffff" d="M1.1223992715096792e-15,-18.330171152876687A18.330171152876687,18.330171152876687,0,0,1,7.3853439252269455,-16.776527340300976L0,0Z"/><path fill="#417505" stroke="#ffffff" d="M7.3853439252269455,-16.776527340300976A18.330171152876687,18.330171152876687,0,0,1,18.13909962278599,2.639742292042488L0,0Z"/><path fill="#5e4fa2" stroke="#ffffff" d="M18.13909962278599,2.639742292042488A18.330171152876687,18.330171152876687,0,1,1,-3.3671978145290374e-15,-18.330171152876687L0,0Z"/></g><text y="46.66982884712331" x="67.08333333333333" style="font-family: Arial, sans-serif; font-size: 12px; fill: black; font-weight: bold; dominant-baseline: auto; text-anchor: middle;">Brazil</text></g><g transform="translate(402.5,0)"><g id="pie" transform="translate(67.08333333333333,69)"><path fill="#9e0142" stroke="#ffffff" d="M8.2949958600042595e-16,-13.546756282349422A13.546756282349422,13.546756282349422,0,0,1,1.359575691168057,-13.478358939921375L0,0Z"/><path fill="#417505" stroke="#ffffff" d="M1.359575691168057,-13.478358939921375A13.546756282349422,13.546756282349422,0,0,1,12.935317270339306,4.023949911347705L0,0Z"/><path fill="#5e4fa2" stroke="#ffffff" d="M12.935317270339306,4.023949911347705A13.546756282349422,13.546756282349422,0,1,1,-2.4884987580012777e-15,-13.546756282349422L0,0Z"/></g><text y="51.45324371765058" x="67.08333333333333" style="font-family: Arial, sans-serif; font-size: 12px; fill: black; font-weight: bold; dominant-baseline: auto; text-anchor: middle;">Canada</text></g><g transform="translate(536.6666666666666,0)"><g id="pie" transform="translate(67.08333333333333,69)"><path fill="#9e0142" stroke="#ffffff" d="M3.0003846579110155e-15,-49A49,49,0,0,1,23.335671979729018,-43.086499199337254L0,0Z"/><path fill="#417505" stroke="#ffffff" d="M23.335671979729018,-43.086499199337254A49,49,0,0,1,4.91772402770953,48.75259983208371L0,0Z"/><path fill="#5e4fa2" stroke="#ffffff" d="M4.91772402770953,48.75259983208371A49,49,0,1,1,-9.001153973733046e-15,-49L0,0Z"/></g><text y="16" x="67.08333333333333" style="font-family: Arial, sans-serif; font-size: 12px; fill: black; font-weight: bold; dominant-baseline: auto; text-anchor: middle;">China</text></g><g transform="translate(670.8333333333334,0)"><g id="pie" transform="translate(67.08333333333333,69)"><path fill="#9e0142" stroke="#ffffff" d="M6.833648074145413e-16,-11.160194235437132A11.160194235437132,11.160194235437132,0,0,1,7.484981305055933,-8.277982256301796L0,0Z"/><path fill="#417505" stroke="#ffffff" d="M7.484981305055933,-8.277982256301796A11.160194235437132,11.160194235437132,0,0,1,2.7754274451487224,10.809576211369222L0,0Z"/><path fill="#5e4fa2" stroke="#ffffff" d="M2.7754274451487224,10.809576211369222A11.160194235437132,11.160194235437132,0,1,1,-2.050094422243624e-15,-11.160194235437132L0,0Z"/></g><text y="53.83980576456287" x="67.08333333333333" style="font-family: Arial, sans-serif; font-size: 12px; fill: black; font-weight: bold; dominant-baseline: auto; text-anchor: middle;">Egypt</text></g><g transform="translate(0,120)"><g id="pie" transform="translate(67.08333333333333,69)"><path fill="#9e0142" stroke="#ffffff" d="M2.8094241048465104e-15,-45.881377500885A45.881377500885,45.881377500885,0,0,1,4.717568984676649,-45.63820049315632L0,0Z"/><path fill="#417505" stroke="#ffffff" d="M4.717568984676649,-45.63820049315632A45.881377500885,45.881377500885,0,0,1,45.379348700622614,6.768715748649576L0,0Z"/><path fill="#5e4fa2" stroke="#ffffff" d="M45.379348700622614,6.768715748649576A45.881377500885,45.881377500885,0,1,1,-4.917912167694045e-14,-45.881377500885L0,0Z"/></g><text y="19.118622499115" x="67.08333333333333" style="font-family: Arial, sans-serif; font-size: 12px; fill: black; font-weight: bold; dominant-baseline: auto; text-anchor: middle;">European Union</text></g><g transform="translate(134.16666666666666,120)"><g id="pie" transform="translate(67.08333333333333,69)"><path fill="#9e0142" stroke="#ffffff" d="M1.0524911856372527e-15,-17.188485469770356A17.188485469770356,17.188485469770356,0,0,1,1.8324842761757523,-17.090524688319995L0,0Z"/><path fill="#417505" stroke="#ffffff" d="M1.8324842761757523,-17.090524688319995A17.188485469770356,17.188485469770356,0,0,1,16.700877923171664,-4.065059573957555L0,0Z"/><path fill="#5e4fa2" stroke="#ffffff" d="M16.700877923171664,-4.065059573957555A17.188485469770356,17.188485469770356,0,1,1,-3.157473556911758e-15,-17.188485469770356L0,0Z"/></g><text y="47.811514530229644" x="67.08333333333333" style="font-family: Arial, sans-serif; font-size: 12px; fill: black; font-weight: bold; dominant-baseline: auto; text-anchor: middle;">France</text></g><g transform="translate(268.3333333333333,120)"><g id="pie" transform="translate(67.08333333333333,69)"><path fill="#9e0142" stroke="#ffffff" d="M1.2761810843141665e-15,-20.841618745955053A20.841618745955053,20.841618745955053,0,0,1,0.9163667589579827,-20.821463539214093L0,0Z"/><path fill="#417505" stroke="#ffffff" d="M0.9163667589579827,-20.821463539214093A20.841618745955053,20.841618745955053,0,0,1,19.179121320685372,8.156860751427402L0,0Z"/><path fill="#5e4fa2" stroke="#ffffff" d="M19.179121320685372,8.156860751427402A20.841618745955053,20.841618745955053,0,1,1,-3.828543252942499e-15,-20.841618745955053L0,0Z"/></g><text y="44.15838125404495" x="67.08333333333333" style="font-family: Arial, sans-serif; font-size: 12px; fill: black; font-weight: bold; dominant-baseline: auto; text-anchor: middle;">Germany</text></g><g transform="translate(402.5,120)"><g id="pie" transform="translate(67.08333333333333,69)"><path fill="#9e0142" stroke="#ffffff" d="M1.915970421297247e-15,-31.29017154384791A31.29017154384791,31.29017154384791,0,0,1,25.78565638561255,-17.724975599603745L0,0Z"/><path fill="#417505" stroke="#ffffff" d="M25.78565638561255,-17.724975599603745A31.29017154384791,31.29017154384791,0,0,1,20.783193550465686,23.390889275256537L0,0Z"/><path fill="#5e4fa2" stroke="#ffffff" d="M20.783193550465686,23.390889275256537A31.29017154384791,31.29017154384791,0,1,1,-5.747911263891741e-15,-31.29017154384791L0,0Z"/></g><text y="33.70982845615209" x="67.08333333333333" style="font-family: Arial, sans-serif; font-size: 12px; fill: black; font-weight: bold; dominant-baseline: auto; text-anchor: middle;">India</text></g><g transform="translate(536.6666666666666,120)"><g id="pie" transform="translate(67.08333333333333,69)"><path fill="#9e0142" stroke="#ffffff" d="M1.1233060167267797e-15,-18.34497942604952A18.34497942604952,18.34497942604952,0,0,1,13.90184557710684,-11.969835407909965L0,0Z"/><path fill="#417505" stroke="#ffffff" d="M13.90184557710684,-11.969835407909965A18.34497942604952,18.34497942604952,0,0,1,-5.278760799022334,17.56909088623783L0,0Z"/><path fill="#5e4fa2" stroke="#ffffff" d="M-5.278760799022334,17.56909088623783A18.34497942604952,18.34497942604952,0,0,1,-3.369918050180339e-15,-18.34497942604952L0,0Z"/></g><text y="46.65502057395048" x="67.08333333333333" style="font-family: Arial, sans-serif; font-size: 12px; fill: black; font-weight: bold; dominant-baseline: auto; text-anchor: middle;">Indonesia</text></g><g transform="translate(670.8333333333334,120)"><g id="pie" transform="translate(67.08333333333333,69)"><path fill="#9e0142" stroke="#ffffff" d="M7.971573118833324e-16,-13.018566862516511A13.018566862516511,13.018566862516511,0,0,1,7.39150075409326,-10.716753228289422L0,0Z"/><path fill="#417505" stroke="#ffffff" d="M7.39150075409326,-10.716753228289422A13.018566862516511,13.018566862516511,0,0,1,4.065764099828826,12.367402534014817L0,0Z"/><path fill="#5e4fa2" stroke="#ffffff" d="M4.065764099828826,12.367402534014817A13.018566862516511,13.018566862516511,0,1,1,-2.3914719356499968e-15,-13.018566862516511L0,0Z"/></g><text y="51.98143313748349" x="67.08333333333333" style="font-family: Arial, sans-serif; font-size: 12px; fill: black; font-weight: bold; dominant-baseline: auto; text-anchor: middle;">Iran</text></g><g transform="translate(0,240)"><g id="pie" transform="translate(67.08333333333333,69)"><path fill="#9e0142" stroke="#ffffff" d="M9.475128900606413e-16,-15.474059797818223A15.474059797818223,15.474059797818223,0,0,1,2.037860774533382,-15.339284536446682L0,0Z"/><path fill="#417505" stroke="#ffffff" d="M2.037860774533382,-15.339284536446682A15.474059797818223,15.474059797818223,0,0,1,15.44191576594815,0.9968771758928523L0,0Z"/><path fill="#5e4fa2" stroke="#ffffff" d="M15.44191576594815,0.9968771758928523A15.474059797818223,15.474059797818223,0,1,1,-2.8425386701819236e-15,-15.474059797818223L0,0Z"/></g><text y="49.52594020218178" x="67.08333333333333" style="font-family: Arial, sans-serif; font-size: 12px; fill: black; font-weight: bold; dominant-baseline: auto; text-anchor: middle;">Italy</text></g><g transform="translate(134.16666666666666,240)"><g id="pie" transform="translate(67.08333333333333,69)"><path fill="#9e0142" stroke="#ffffff" d="M1.4522496387934494e-15,-23.717036451727342A23.717036451727342,23.717036451727342,0,0,1,1.6395360705275925,-23.660298804664375L0,0Z"/><path fill="#417505" stroke="#ffffff" d="M1.6395360705275925,-23.660298804664375A23.717036451727342,23.717036451727342,0,0,1,21.922372562466705,9.050270674679876L0,0Z"/><path fill="#5e4fa2" stroke="#ffffff" d="M21.922372562466705,9.050270674679876A23.717036451727342,23.717036451727342,0,1,1,-2.5421708872045804e-14,-23.717036451727342L0,0Z"/></g><text y="41.28296354827266" x="67.08333333333333" style="font-family: Arial, sans-serif; font-size: 12px; fill: black; font-weight: bold; dominant-baseline: auto; text-anchor: middle;">Japan</text></g><g transform="translate(268.3333333333333,240)"><g id="pie" transform="translate(67.08333333333333,69)"><path fill="#9e0142" stroke="#ffffff" d="M8.875377686800552e-16,-14.494591735314925A14.494591735314925,14.494591735314925,0,0,1,2.001190839999801,-14.355780187623402L0,0Z"/><path fill="#417505" stroke="#ffffff" d="M2.001190839999801,-14.355780187623402A14.494591735314925,14.494591735314925,0,0,1,7.313053240843208,12.514489277235903L0,0Z"/><path fill="#5e4fa2" stroke="#ffffff" d="M7.313053240843208,12.514489277235903A14.494591735314925,14.494591735314925,0,1,1,-2.6626133060401655e-15,-14.494591735314925L0,0Z"/></g><text y="50.50540826468507" x="67.08333333333333" style="font-family: Arial, sans-serif; font-size: 12px; fill: black; font-weight: bold; dominant-baseline: auto; text-anchor: middle;">Korea, South</text></g><g transform="translate(402.5,240)"><g id="pie" transform="translate(67.08333333333333,69)"><path fill="#9e0142" stroke="#ffffff" d="M6.016584198510222e-16,-9.825827663452356A9.825827663452356,9.825827663452356,0,0,1,5.160252889993407,-8.361739016686679L0,0Z"/><path fill="#417505" stroke="#ffffff" d="M5.160252889993407,-8.361739016686679A9.825827663452356,9.825827663452356,0,0,1,2.2036587399660292,9.575530138307588L0,0Z"/><path fill="#5e4fa2" stroke="#ffffff" d="M2.2036587399660292,9.575530138307588A9.825827663452356,9.825827663452356,0,1,1,-1.8049752595530666e-15,-9.825827663452356L0,0Z"/></g><text y="55.17417233654764" x="67.08333333333333" style="font-family: Arial, sans-serif; font-size: 12px; fill: black; font-weight: bold; dominant-baseline: auto; text-anchor: middle;">Malaysia</text></g><g transform="translate(536.6666666666666,240)"><g id="pie" transform="translate(67.08333333333333,69)"><path fill="#9e0142" stroke="#ffffff" d="M9.773982830268739e-16,-15.962125303514068A15.962125303514068,15.962125303514068,0,0,1,3.579837988188472,-15.555520055061058L0,0Z"/><path fill="#417505" stroke="#ffffff" d="M3.579837988188472,-15.555520055061058A15.962125303514068,15.962125303514068,0,0,1,12.612553316740476,9.783299189816434L0,0Z"/><path fill="#5e4fa2" stroke="#ffffff" d="M12.612553316740476,9.783299189816434A15.962125303514068,15.962125303514068,0,1,1,-2.9321948490806212e-15,-15.962125303514068L0,0Z"/></g><text y="49.03787469648593" x="67.08333333333333" style="font-family: Arial, sans-serif; font-size: 12px; fill: black; font-weight: bold; dominant-baseline: auto; text-anchor: middle;">Mexico</text></g><g transform="translate(670.8333333333334,240)"><g id="pie" transform="translate(67.08333333333333,69)"><path fill="#9e0142" stroke="#ffffff" d="M5.671077837384287e-16,-9.261572955292435A9.261572955292435,9.261572955292435,0,0,1,1.0357878270387557,-9.20347093131513L0,0Z"/><path fill="#417505" stroke="#ffffff" d="M1.0357878270387557,-9.20347093131513A9.261572955292435,9.261572955292435,0,0,1,9.067858086630814,-1.884325695554883L0,0Z"/><path fill="#5e4fa2" stroke="#ffffff" d="M9.067858086630814,-1.884325695554883A9.261572955292435,9.261572955292435,0,1,1,-1.7013233512152858e-15,-9.261572955292435L0,0Z"/></g><text y="55.738427044707564" x="67.08333333333333" style="font-family: Arial, sans-serif; font-size: 12px; fill: black; font-weight: bold; dominant-baseline: auto; text-anchor: middle;">Netherlands</text></g><g transform="translate(0,360)"><g id="pie" transform="translate(67.08333333333333,69)"><path fill="#9e0142" stroke="#ffffff" d="M6.593897200332978e-16,-10.76865134490027A10.76865134490027,10.76865134490027,0,0,1,10.446955078016702,-2.612466532976734L0,0Z"/><path fill="#417505" stroke="#ffffff" d="M10.446955078016702,-2.612466532976734A10.76865134490027,10.76865134490027,0,0,1,4.214566563744989,9.90965592075654L0,0Z"/><path fill="#5e4fa2" stroke="#ffffff" d="M4.214566563744989,9.90965592075654A10.76865134490027,10.76865134490027,0,1,1,-1.978169160099893e-15,-10.76865134490027L0,0Z"/></g><text y="54.23134865509973" x="67.08333333333333" style="font-family: Arial, sans-serif; font-size: 12px; fill: black; font-weight: bold; dominant-baseline: auto; text-anchor: middle;">Nigeria</text></g><g transform="translate(134.16666666666666,360)"><g id="pie" transform="translate(67.08333333333333,69)"><path fill="#9e0142" stroke="#ffffff" d="M6.415005865568101e-16,-10.476499624274489A10.476499624274489,10.476499624274489,0,0,1,10.469055784660585,-0.3948611845804071L0,0Z"/><path fill="#417505" stroke="#ffffff" d="M10.469055784660585,-0.3948611845804071A10.476499624274489,10.476499624274489,0,0,1,4.160719727016689,9.614855991154402L0,0Z"/><path fill="#5e4fa2" stroke="#ffffff" d="M4.160719727016689,9.614855991154402A10.476499624274489,10.476499624274489,0,1,1,-1.92450175967043e-15,-10.476499624274489L0,0Z"/></g><text y="54.52350037572551" x="67.08333333333333" style="font-family: Arial, sans-serif; font-size: 12px; fill: black; font-weight: bold; dominant-baseline: auto; text-anchor: middle;">Pakistan</text></g><g transform="translate(268.3333333333333,360)"><g id="pie" transform="translate(67.08333333333333,69)"><path fill="#9e0142" stroke="#ffffff" d="M5.832955690440356e-16,-9.52593955171644A9.52593955171644,9.52593955171644,0,0,1,5.403758480661428,-7.844929485064561L0,0Z"/><path fill="#417505" stroke="#ffffff" d="M5.403758480661428,-7.844929485064561A9.52593955171644,9.52593955171644,0,0,1,5.501944939732809,7.776382592382153L0,0Z"/><path fill="#5e4fa2" stroke="#ffffff" d="M5.501944939732809,7.776382592382153A9.52593955171644,9.52593955171644,0,1,1,-1.7498867071321066e-15,-9.52593955171644L0,0Z"/></g><text y="55.47406044828356" x="67.08333333333333" style="font-family: Arial, sans-serif; font-size: 12px; fill: black; font-weight: bold; dominant-baseline: auto; text-anchor: middle;">Philippines</text></g><g transform="translate(402.5,360)"><g id="pie" transform="translate(67.08333333333333,69)"><path fill="#9e0142" stroke="#ffffff" d="M6.608586229898163e-16,-10.792640350669789A10.792640350669789,10.792640350669789,0,0,1,1.621330754847823,-10.670162713018499L0,0Z"/><path fill="#417505" stroke="#ffffff" d="M1.621330754847823,-10.670162713018499A10.792640350669789,10.792640350669789,0,0,1,4.839238790536373,9.646909021395079L0,0Z"/><path fill="#5e4fa2" stroke="#ffffff" d="M4.839238790536373,9.646909021395079A10.792640350669789,10.792640350669789,0,1,1,-1.9825758689694486e-15,-10.792640350669789L0,0Z"/></g><text y="54.207359649330215" x="67.08333333333333" style="font-family: Arial, sans-serif; font-size: 12px; fill: black; font-weight: bold; dominant-baseline: auto; text-anchor: middle;">Poland</text></g><g transform="translate(536.6666666666666,360)"><g id="pie" transform="translate(67.08333333333333,69)"><path fill="#9e0142" stroke="#ffffff" d="M1.2443123458088744e-15,-20.321162749540733A20.321162749540733,20.321162749540733,0,0,1,5.948839415316063,-19.43092805565663L0,0Z"/><path fill="#417505" stroke="#ffffff" d="M5.948839415316063,-19.43092805565663A20.321162749540733,20.321162749540733,0,0,1,14.527301259387851,14.209404407374365L0,0Z"/><path fill="#5e4fa2" stroke="#ffffff" d="M14.527301259387851,14.209404407374365A20.321162749540733,20.321162749540733,0,1,1,-3.732937037426623e-15,-20.321162749540733L0,0Z"/></g><text y="44.67883725045927" x="67.08333333333333" style="font-family: Arial, sans-serif; font-size: 12px; fill: black; font-weight: bold; dominant-baseline: auto; text-anchor: middle;">Russia</text></g><g transform="translate(670.8333333333334,360)"><g id="pie" transform="translate(67.08333333333333,69)"><path fill="#9e0142" stroke="#ffffff" d="M8.29733346632374e-16,-13.55057388318112A13.55057388318112,13.55057388318112,0,0,1,2.2038269231244048,-13.37016078648504L0,0Z"/><path fill="#417505" stroke="#ffffff" d="M2.2038269231244048,-13.37016078648504A13.55057388318112,13.55057388318112,0,0,1,2.706184846169134,13.277598282141042L0,0Z"/><path fill="#5e4fa2" stroke="#ffffff" d="M2.706184846169134,13.277598282141042A13.55057388318112,13.55057388318112,0,1,1,-2.4892000398971214e-15,-13.55057388318112L0,0Z"/></g><text y="51.449426116818884" x="67.08333333333333" style="font-family: Arial, sans-serif; font-size: 12px; fill: black; font-weight: bold; dominant-baseline: auto; text-anchor: middle;">Saudi Arabia</text></g><g transform="translate(0,480)"><g id="pie" transform="translate(67.08333333333333,69)"><path fill="#9e0142" stroke="#ffffff" d="M8.304342337177592e-16,-13.56202023793211A13.56202023793211,13.56202023793211,0,0,1,2.2056885258129206,-13.38145474383026L0,0Z"/><path fill="#417505" stroke="#ffffff" d="M2.2056885258129206,-13.38145474383026A13.56202023793211,13.56202023793211,0,0,1,13.544890817861532,0.6814144599951347L0,0Z"/><path fill="#5e4fa2" stroke="#ffffff" d="M13.544890817861532,0.6814144599951347A13.56202023793211,13.56202023793211,0,1,1,-2.4913027011532775e-15,-13.56202023793211L0,0Z"/></g><text y="51.43797976206789" x="67.08333333333333" style="font-family: Arial, sans-serif; font-size: 12px; fill: black; font-weight: bold; dominant-baseline: auto; text-anchor: middle;">Spain</text></g><g transform="translate(134.16666666666666,480)"><g id="pie" transform="translate(67.08333333333333,69)"><path fill="#9e0142" stroke="#ffffff" d="M6.787549929242281e-16,-11.084910251621999A11.084910251621999,11.084910251621999,0,0,1,1.252249801018298,-11.013950504808168L0,0Z"/><path fill="#417505" stroke="#ffffff" d="M1.252249801018298,-11.013950504808168A11.084910251621999,11.084910251621999,0,0,1,7.670080262224933,8.002818507097482L0,0Z"/><path fill="#5e4fa2" stroke="#ffffff" d="M7.670080262224933,8.002818507097482A11.084910251621999,11.084910251621999,0,1,1,-2.0362649787726843e-15,-11.084910251621999L0,0Z"/></g><text y="53.915089748378" x="67.08333333333333" style="font-family: Arial, sans-serif; font-size: 12px; fill: black; font-weight: bold; dominant-baseline: auto; text-anchor: middle;">Taiwan</text></g><g transform="translate(268.3333333333333,480)"><g id="pie" transform="translate(67.08333333333333,69)"><path fill="#9e0142" stroke="#ffffff" d="M6.923865155077076e-16,-11.30752990968129A11.30752990968129,11.30752990968129,0,0,1,5.571529151875055,-9.839628832844427L0,0Z"/><path fill="#417505" stroke="#ffffff" d="M5.571529151875055,-9.839628832844427A11.30752990968129,11.30752990968129,0,0,1,3.8970601619558463,10.614761172651678L0,0Z"/><path fill="#5e4fa2" stroke="#ffffff" d="M3.8970601619558463,10.614761172651678A11.30752990968129,11.30752990968129,0,1,1,-2.0771595465231225e-15,-11.30752990968129L0,0Z"/></g><text y="53.69247009031871" x="67.08333333333333" style="font-family: Arial, sans-serif; font-size: 12px; fill: black; font-weight: bold; dominant-baseline: auto; text-anchor: middle;">Thailand</text></g><g transform="translate(402.5,480)"><g id="pie" transform="translate(67.08333333333333,69)"><path fill="#9e0142" stroke="#ffffff" d="M9.198769049586247e-16,-15.02272991035585A15.02272991035585,15.02272991035585,0,0,1,6.236756705023735,-13.666941126742362L0,0Z"/><path fill="#417505" stroke="#ffffff" d="M6.236756705023735,-13.666941126742362A15.02272991035585,15.02272991035585,0,0,1,9.445532446935223,11.681794842976577L0,0Z"/><path fill="#5e4fa2" stroke="#ffffff" d="M9.445532446935223,11.681794842976577A15.02272991035585,15.02272991035585,0,1,1,-2.759630714875874e-15,-15.02272991035585L0,0Z"/></g><text y="49.97727008964415" x="67.08333333333333" style="font-family: Arial, sans-serif; font-size: 12px; fill: black; font-weight: bold; dominant-baseline: auto; text-anchor: middle;">Turkey</text></g><g transform="translate(536.6666666666666,480)"><g id="pie" transform="translate(67.08333333333333,69)"><path fill="#9e0142" stroke="#ffffff" d="M1.0656616566683469e-15,-17.403575584573478A17.403575584573478,17.403575584573478,0,0,1,0.7644385246696566,-17.38677879510644L0,0Z"/><path fill="#417505" stroke="#ffffff" d="M0.7644385246696566,-17.38677879510644A17.403575584573478,17.403575584573478,0,0,1,16.823452256832155,-4.455995656421933L0,0Z"/><path fill="#5e4fa2" stroke="#ffffff" d="M16.823452256832155,-4.455995656421933A17.403575584573478,17.403575584573478,0,1,1,1.2260495289833114e-14,-17.403575584573478L0,0Z"/></g><text y="47.596424415426526" x="67.08333333333333" style="font-family: Arial, sans-serif; font-size: 12px; fill: black; font-weight: bold; dominant-baseline: auto; text-anchor: middle;">United Kingdom</text></g><g transform="translate(670.8333333333334,480)"><g id="pie" transform="translate(67.08333333333333,69)"><path fill="#9e0142" stroke="#ffffff" d="M2.7494465760931813e-15,-44.90187012300123A44.90187012300123,44.90187012300123,0,0,1,2.537787894854236,-44.8300967335963L0,0Z"/><path fill="#417505" stroke="#ffffff" d="M2.537787894854236,-44.8300967335963A44.90187012300123,44.90187012300123,0,0,1,42.70421617431899,-13.87544094722409L0,0Z"/><path fill="#5e4fa2" stroke="#ffffff" d="M42.70421617431899,-13.87544094722409A44.90187012300123,44.90187012300123,0,1,1,-8.248339728279544e-15,-44.90187012300123L0,0Z"/></g><text y="20.09812987699877" x="67.08333333333333" style="font-family: Arial, sans-serif; font-size: 12px; fill: black; font-weight: bold; dominant-baseline: auto; text-anchor: middle;">United States</text></g></g><g id="legend" transform="translate(805,20)"><g transform="translate(5,0)"><g class="legendSize" transform="translate(0,0)"><g class="legendCells" transform="translate(49,16)"><g class="cell" transform="translate(0, 9)"><circle class="swatch" r="9" fill="none" stroke="#ccc"/><text class="label" transform="translate( 54,&#10;          5)" font-family="&quot;Arial&quot;, sans-serif" font-size="10px"><tspan x="0" dy="0em">829187.0</tspan></text></g><g class="cell" transform="translate(0, 76)"><circle class="swatch" r="49" fill="none" stroke="#ccc"/><text class="label" transform="translate( 54,&#10;          5)" font-family="&quot;Arial&quot;, sans-serif" font-size="10px"><tspan x="0" dy="0em">23210000.0</tspan></text></g></g><text class="legendTitle" font-family="&quot;Arial&quot;, sans-serif" font-size="12px" font-weight="bold"><tspan x="0" dy="0em">Area</tspan></text></g><g class="legendColor" transform="translate(0,173.8000030517578)"><g class="legendCells" transform="translate(0,16)"><g class="cell" transform="translate(0, 0)"><rect class="swatch" height="15" width="15" style="fill: rgb(158, 1, 66);"/><text class="label" transform="translate( 20, 12.5)" font-family="&quot;Arial&quot;, sans-serif" font-size="10px"><tspan x="0" dy="0em">Agricultural (US$MM)</tspan></text></g><g class="cell" transform="translate(0, 21)"><rect class="swatch" height="15" width="15" style="fill: rgb(65, 117, 5);"/><text class="label" transform="translate( 20, 12.5)" font-family="&quot;Arial&quot;, sans-serif" font-size="10px"><tspan x="0" dy="0em">Industrial (US$MM)</tspan></text></g><g class="cell" transform="translate(0, 42)"><rect class="swatch" height="15" width="15" style="fill: rgb(94, 79, 162);"/><text class="label" transform="translate( 20, 12.5)" font-family="&quot;Arial&quot;, sans-serif" font-size="10px"><tspan x="0" dy="0em">Service (US$MM)</tspan></text></g></g><text class="legendTitle" font-family="&quot;Arial&quot;, sans-serif" font-size="12px" font-weight="bold"><tspan x="0" dy="0em">Arcs colors</tspan></text></g></g></g></svg>
